#!OML:ASF X:\für Bonn\!DataBase\2005_08_10_Bjorn_Final\c3d\bjorn.ASF
:FULLY-SPECIFIED
:DEGREES
738
root 0.568484 1.57607 18.1288 -442.947 -175.894 -714.162
lowerback -9.47703 0.070612 -3.75665
upperback 1.11741 0.623181 -2.9036
thorax 6.49654 0.184826 -0.846028
lowerneck -14.2188 -5.63783 -2.21286
upperneck 2.45602 -7.7921 5.3051
head 3.68093 -3.77469 1.5551
rclavicle -2.70347e-014 2.8128e-014
rhumerus -243.075 -228.947 72.0641
rradius 109.815
rwrist -32.5179
rhand 4.26652 7.65503
rfingers 7.12502
rthumb 29.6701 -19.9915
lclavicle -2.70347e-014 2.8128e-014
lhumerus -71.3471 -66.3223 115.018
lradius 107.882
lwrist 34.6912
lhand 2.74136 -372.59
lfingers 7.12502
lthumb 28.2134 15.3062
rfemur -16.3936 -24.8846 11.3766
rtibia 29.2066
rfoot 2.1383 -6.08604
rtoes 12.1824
lfemur 164.197 179.296 166.625
ltibia 24.8555
lfoot -1.83045 10.1376
ltoes 15.739
739
root 0.568504 1.57608 18.1286 -442.964 -175.894 -714.161
lowerback -9.47074 0.0796767 -3.74867
upperback 1.13346 0.635005 -2.9169
thorax 6.5101 0.190658 -0.862931
lowerneck -14.2176 -5.64262 -2.16494
upperneck 2.43325 -7.80746 5.29628
head 3.67017 -3.7833 1.54249
rclavicle -2.14687e-014 8.94531e-015
rhumerus -243.042 -228.925 72.0816
rradius 109.806
rwrist -32.5169
rhand 4.26442 7.66943
rfingers 7.12502
rthumb 29.6681 -19.9774
lclavicle -2.14687e-014 8.94531e-015
lhumerus -71.2912 -66.3658 114.965
lradius 107.864
lwrist 34.7054
lhand 2.76379 -372.597
lfingers 7.12502
lthumb 28.2348 15.2956
rfemur -16.3707 -24.8828 11.3682
rtibia 29.2028
rfoot 2.13801 -6.08576
rtoes 12.1828
lfemur 164.214 179.296 166.626
ltibia 24.8594
lfoot -1.84187 10.1323
ltoes 15.7043
740
root 0.568336 1.57585 18.1286 -442.965 -175.897 -714.162
lowerback -9.47576 0.0743212 -3.74799
upperback 1.14096 0.628684 -2.91612
thorax 6.52101 0.187517 -0.863517
lowerneck -14.2337 -5.63849 -2.16437
upperneck 2.43998 -7.8041 5.3121
head 3.67645 -3.78086 1.54752
rclavicle 2.54444e-014 -2.40529e-014
rhumerus -243.011 -228.954 72.0933
rradius 109.805
rwrist -32.5554
rhand 4.24302 7.6453
rfingers 7.12502
rthumb 29.6477 -20.0052
lclavicle 2.54444e-014 -2.40529e-014
lhumerus -71.2278 -66.3687 114.903
lradius 107.856
lwrist 34.6715
lhand 2.74762 -372.592
lfingers 7.12502
lthumb 28.2194 15.3033
rfemur -16.3672 -24.8974 11.3694
rtibia 29.1967
rfoot 2.16181 -6.06834
rtoes 12.2906
lfemur 164.213 179.297 166.627
ltibia 24.8655
lfoot -1.84053 10.1201
ltoes 15.6574
741
root 0.568308 1.57585 18.1284 -442.984 -175.913 -714.16
lowerback -9.45296 0.0753884 -3.73383
upperback 1.13804 0.626999 -2.91
thorax 6.50497 0.187484 -0.865155
lowerneck -14.204 -5.63741 -2.15465
upperneck 2.43253 -7.80385 5.30747
head 3.66725 -3.78133 1.54506
rclavicle 2.38542e-015 -5.06901e-014
rhumerus -243.049 -228.955 72.0728
rradius 109.805
rwrist -32.5971
rhand 4.23845 7.64997
rfingers 7.12502
rthumb 29.6433 -20.0013
lclavicle 2.38542e-015 -5.06901e-014
lhumerus -71.244 -66.3376 114.92
lradius 107.846
lwrist 34.6566
lhand 2.76676 -372.599
lfingers 7.12502
lthumb 28.2377 15.2937
rfemur -16.3402 -24.8911 11.3785
rtibia 29.1886
rfoot 2.1558 -6.08082
rtoes 12.3497
lfemur 164.224 179.287 166.645
ltibia 24.8723
lfoot -1.82276 10.1125
ltoes 15.5886
742
root 0.568338 1.57591 18.1292 -442.984 -175.913 -714.16
lowerback -9.47727 0.0699839 -3.73716
upperback 1.16408 0.623253 -2.90941
thorax 6.54652 0.185031 -0.863557
lowerneck -14.2708 -5.63204 -2.12444
upperneck 2.45159 -7.80028 5.28254
head 3.68385 -3.77904 1.52976
rclavicle -1.43125e-014 -4.2043e-014
rhumerus -242.979 -228.983 72.1175
rradius 109.802
rwrist -32.6113
rhand 4.23946 7.64512
rfingers 7.12502
rthumb 29.6443 -20.006
lclavicle -1.43125e-014 -4.2043e-014
lhumerus -71.0715 -66.3484 114.774
lradius 107.821
lwrist 34.6794
lhand 2.80201 -372.616
lfingers 7.12502
lthumb 28.2713 15.2704
rfemur -16.3352 -24.8911 11.3789
rtibia 29.1798
rfoot 2.15831 -6.08349
rtoes 12.3526
lfemur 164.221 179.293 166.646
ltibia 24.8791
lfoot -1.81626 10.1032
ltoes 15.5912
743
root 0.568359 1.57592 18.1292 -442.994 -175.929 -714.158
lowerback -9.46658 0.0710825 -3.72044
upperback 1.16674 0.622396 -2.90507
thorax 6.54334 0.185338 -0.868471
lowerneck -14.2845 -5.6306 -2.13595
upperneck 2.47305 -7.79837 5.29961
head 3.69567 -3.77694 1.53718
rclavicle 7.95139e-016 1.86858e-014
rhumerus -243.002 -228.991 72.1002
rradius 109.801
rwrist -32.655
rhand 4.21384 7.63093
rfingers 7.12502
rthumb 29.6198 -20.0245
lclavicle 7.95139e-016 1.86858e-014
lhumerus -71.0723 -66.3634 114.773
lradius 107.809
lwrist 34.6654
lhand 2.77408 -372.633
lfingers 7.12502
lthumb 28.2447 15.2581
rfemur -16.3171 -24.8864 11.3923
rtibia 29.1693
rfoot 2.15608 -6.08019
rtoes 12.4134
lfemur 164.228 179.29 166.664
ltibia 24.8859
lfoot -1.82164 10.1028
ltoes 15.598
744
root 0.568349 1.576 18.1294 -442.986 -175.929 -714.159
lowerback -9.48093 0.0689071 -3.71922
upperback 1.16388 0.620181 -2.91014
thorax 6.54859 0.184264 -0.874836
lowerneck -14.2663 -5.62206 -2.11257
upperneck 2.46976 -7.79223 5.30499
head 3.68982 -3.77396 1.53582
rclavicle 1.90833e-014 -2.72335e-014
rhumerus -242.985 -228.999 72.1009
rradius 109.787
rwrist -32.688
rhand 4.22492 7.64619
rfingers 7.12502
rthumb 29.6304 -20.0074
lclavicle 1.90833e-014 -2.72335e-014
lhumerus -71.0597 -66.3443 114.739
lradius 107.817
lwrist 34.6294
lhand 2.80225 -372.621
lfingers 7.12502
lthumb 28.2716 15.2655
rfemur -16.3258 -24.9076 11.3968
rtibia 29.162
rfoot 2.17605 -6.07012
rtoes 12.4587
lfemur 164.218 179.289 166.664
ltibia 24.8892
lfoot -1.81967 10.0836
ltoes 15.6548
745
root 0.567967 1.57581 18.1294 -442.997 -175.947 -714.157
lowerback -9.48063 0.0647173 -3.69825
upperback 1.17854 0.613336 -2.90785
thorax 6.56424 0.181644 -0.885346
lowerneck -14.288 -5.61698 -2.0925
upperneck 2.46793 -7.7892 5.30158
head 3.69201 -3.77237 1.53082
rclavicle 2.54444e-014 -1.86858e-014
rhumerus -242.963 -229.016 72.1006
rradius 109.775
rwrist -32.698
rhand 4.18039 7.63621
rfingers 7.12502
rthumb 29.5879 -20.0249
lclavicle 2.54444e-014 -1.86858e-014
lhumerus -70.9754 -66.3477 114.663
lradius 107.794
lwrist 34.6105
lhand 2.79465 -372.668
lfingers 7.12502
lthumb 28.2643 15.2203
rfemur -16.307 -24.8808 11.4057
rtibia 29.1564
rfoot 2.15158 -6.08978
rtoes 12.6101
lfemur 164.228 179.286 166.683
ltibia 24.8916
lfoot -1.81263 10.0668
ltoes 15.7007
746
root 0.567966 1.57581 18.1292 -443.003 -175.931 -714.158
lowerback -9.48261 0.0602102 -3.72207
upperback 1.18899 0.610662 -2.90558
thorax 6.57628 0.179237 -0.870113
lowerneck -14.2958 -5.61686 -2.09205
upperneck 2.46996 -7.78799 5.2923
head 3.69364 -3.77187 1.52752
rclavicle -7.95139e-016 3.47873e-015
rhumerus -242.953 -229.038 72.1109
rradius 109.779
rwrist -32.7803
rhand 4.16941 7.6324
rfingers 7.12502
rthumb 29.5774 -20.0306
lclavicle -7.95139e-016 3.47873e-015
lhumerus -70.9224 -66.3409 114.629
lradius 107.789
lwrist 34.6043
lhand 2.7968 -372.648
lfingers 7.12502
lthumb 28.2664 15.2399
rfemur -16.2975 -24.8838 11.384
rtibia 29.1535
rfoot 2.15542 -6.08863
rtoes 12.6096
lfemur 164.235 179.288 166.665
ltibia 24.8935
lfoot -1.81427 10.0657
ltoes 15.6059
747
root 0.567935 1.57576 18.129 -443.022 -175.947 -714.156
lowerback -9.48041 0.0680663 -3.68624
upperback 1.20482 0.618392 -2.92899
thorax 6.59237 0.18424 -0.913902
lowerneck -14.2873 -5.61108 -2.01466
upperneck 2.45213 -7.79563 5.28628
head 3.68154 -3.7765 1.51139
rclavicle -1.98785e-014 -1.17283e-014
rhumerus -242.927 -229.029 72.0824
rradius 109.765
rwrist -32.8086
rhand 4.13816 7.63904
rfingers 7.12502
rthumb 29.5476 -20.0292
lclavicle -1.98785e-014 -1.17283e-014
lhumerus -70.9226 -66.3727 114.571
lradius 107.796
lwrist 34.6057
lhand 2.8024 -372.691
lfingers 7.12502
lthumb 28.2717 15.1955
rfemur -16.2726 -24.8784 11.3931
rtibia 29.1492
rfoot 2.14383 -6.09876
rtoes 12.6031
lfemur 164.252 179.281 166.684
ltibia 24.8982
lfoot -1.80418 10.0446
ltoes 15.6456
